<svg xmlns="http://www.w3.org/2000/svg" viewBox="0 0 12.83 12.83"><defs><style>.cls-1{fill:none;stroke:#222221;stroke-width:0.27px;}.cls-1,.cls-2{stroke-miterlimit:10;}.cls-2{fill:#1c2121;stroke:#1c2121;stroke-width:0.07px;}</style></defs><title>Recurso 3</title><g id="Capa_2" data-name="Capa 2"><g id="Capa_1-2" data-name="Capa 1"><path class="cls-1" d="M6.41,12.69h0A6.28,6.28,0,0,1,.13,6.41h0A6.28,6.28,0,0,1,6.41.13h0a6.28,6.28,0,0,1,6.28,6.28h0A6.28,6.28,0,0,1,6.41,12.69Z"/><path class="cls-2" d="M9.49,6.69V8.84H8.24v-2c0-.5-.18-.85-.63-.85A.67.67,0,0,0,7,6.45a.91.91,0,0,0,0,.3V8.84H5.68s0-3.39,0-3.74H6.93v.53h0A1.22,1.22,0,0,1,8.05,5c.82,0,1.44.53,1.44,1.68ZM4.38,3.29a.65.65,0,1,0,0,1.3h0a.65.65,0,1,0,0-1.3ZM3.75,8.84H5V5.1H3.75Z"/></g></g></svg>