<svg xmlns="http://www.w3.org/2000/svg" viewBox="0 0 12.83 12.83"><defs><style>.cls-1,.cls-2,.cls-3,.cls-4{fill:none;stroke:#222221;stroke-miterlimit:10;}.cls-1{stroke-width:0.27px;}.cls-2,.cls-3{stroke-width:0.4px;}.cls-3,.cls-4{stroke-linecap:round;}.cls-4{stroke-width:0.2px;}</style></defs><title>Recurso 5</title><g id="Capa_2" data-name="Capa 2"><g id="Capa_1-2" data-name="Capa 1"><path class="cls-1" d="M6.41,12.69h0A6.28,6.28,0,0,1,.13,6.41h0A6.28,6.28,0,0,1,6.41.13h0a6.28,6.28,0,0,1,6.28,6.28h0A6.28,6.28,0,0,1,6.41,12.69Z"/><path class="cls-2" d="M3.45,3.17H9.29a.56.56,0,0,1,.56.56V9.48a.56.56,0,0,1-.56.56H3.54A.56.56,0,0,1,3,9.48V3.64A.47.47,0,0,1,3.45,3.17Z"/><line class="cls-3" x1="8.08" y1="2.81" x2="8.08" y2="3.91"/><line class="cls-3" x1="4.78" y1="2.81" x2="4.78" y2="3.91"/><path class="cls-4" d="M7.52,5.82a1.23,1.23,0,0,0-2.09.89,1.24,1.24,0,0,0,2.09.9"/></g></g></svg>