<svg xmlns="http://www.w3.org/2000/svg" viewBox="0 0 12.83 12.83"><defs><style>.cls-1,.cls-3{fill:none;stroke:#222221;stroke-miterlimit:10;}.cls-1{stroke-width:0.27px;}.cls-2{fill:#222221;}.cls-3{stroke-width:0.4px;}</style></defs><title>Recurso 1</title><g id="Capa_2" data-name="Capa 2"><g id="Capa_1-2" data-name="Capa 1"><path class="cls-1" d="M6.41,12.69h0A6.28,6.28,0,0,1,.13,6.41h0A6.28,6.28,0,0,1,6.41.13h0a6.28,6.28,0,0,1,6.28,6.28h0A6.28,6.28,0,0,1,6.41,12.69Z"/><path class="cls-2" d="M4.41,4.65H6.14V6.41s0,.94-.78.94V6.41h-1Z"/><path class="cls-2" d="M6.69,4.65H8.42V6.41s0,.94-.78.94V6.41H6.69Z"/><path class="cls-3" d="M10.4,5.81a4,4,0,1,0-4,4v1.15C9.27,9.37,10.4,7.89,10.4,5.81Z"/></g></g></svg>